<svg width="37" height="37" viewBox="0 0 37 37" fill="none" xmlns="http://www.w3.org/2000/svg">
<g clip-path="url(#clip0_2_13)">
<path d="M27.1533 23.9207C29.3924 20.8652 30.3953 17.0768 29.9613 13.3136C29.5273 9.55038 27.6884 6.0898 24.8125 3.62419C21.9365 1.15858 18.2357 -0.130215 14.4503 0.0156418C10.665 0.161498 7.07424 1.73125 4.39656 4.41085C1.71888 7.09045 0.151696 10.6823 0.00854784 14.4677C-0.1346 18.2532 1.15684 21.9531 3.62451 24.8273C6.09217 27.7015 9.55408 29.5379 13.3176 29.9692C17.0811 30.4006 20.8688 29.3949 23.9227 27.1536H23.9204C23.9898 27.2461 24.0638 27.334 24.147 27.4195L33.0501 36.3226C33.4837 36.7566 34.072 37.0005 34.6854 37.0007C35.2988 37.0009 35.8872 36.7574 36.3212 36.3238C36.7551 35.8902 36.999 35.302 36.9992 34.6885C36.9994 34.0751 36.7559 33.4867 36.3223 33.0528L27.4192 24.1496C27.3365 24.0659 27.2476 23.9886 27.1533 23.9184V23.9207ZM27.7499 15.0315C27.7499 16.7017 27.4209 18.3556 26.7817 19.8987C26.1425 21.4418 25.2057 22.8439 24.0246 24.025C22.8436 25.206 21.4415 26.1429 19.8984 26.782C18.3553 27.4212 16.7014 27.7502 15.0311 27.7502C13.3609 27.7502 11.707 27.4212 10.1639 26.782C8.62076 26.1429 7.21866 25.206 6.03761 24.025C4.85657 22.8439 3.91971 21.4418 3.28054 19.8987C2.64136 18.3556 2.31238 16.7017 2.31238 15.0315C2.31238 11.6582 3.65239 8.42317 6.03761 6.03794C8.42284 3.65271 11.6579 2.3127 15.0311 2.3127C18.4044 2.3127 21.6394 3.65271 24.0246 6.03794C26.4099 8.42317 27.7499 11.6582 27.7499 15.0315V15.0315Z" fill="#3F3F41"/>
</g>
<defs>
<clipPath id="clip0_2_13">
<rect width="37" height="37" fill="white"/>
</clipPath>
</defs>
</svg>
